<mxfile host="Electron" modified="2023-09-07T21:59:27.275Z" agent="Mozilla/5.0 (Windows NT 10.0; Win64; x64) AppleWebKit/537.36 (KHTML, like Gecko) draw.io/21.6.5 Chrome/114.0.5735.243 Electron/25.3.1 Safari/537.36" etag="ll1ZYZPmmzCiChJApMLk" version="21.6.5" type="device">
  <diagram name="PÃ¡gina-1" id="GnavZgZutR4Cmr_DWngg">
    <mxGraphModel dx="1909" dy="1129" grid="1" gridSize="11" guides="1" tooltips="1" connect="1" arrows="1" fold="1" page="1" pageScale="1" pageWidth="1654" pageHeight="1169" math="0" shadow="0">
      <root>
        <mxCell id="0" />
        <mxCell id="1" parent="0" />
        <mxCell id="G4NPPSlctF6GQNJt1KWF-38" style="edgeStyle=orthogonalEdgeStyle;shape=connector;rounded=0;orthogonalLoop=1;jettySize=auto;html=1;labelBackgroundColor=default;strokeColor=default;fontFamily=Helvetica;fontSize=11;fontColor=default;endArrow=none;endFill=0;" edge="1" parent="1" source="G4NPPSlctF6GQNJt1KWF-1" target="G4NPPSlctF6GQNJt1KWF-8">
          <mxGeometry relative="1" as="geometry" />
        </mxCell>
        <mxCell id="G4NPPSlctF6GQNJt1KWF-1" value="ESTACIONAMENTO" style="rounded=0;whiteSpace=wrap;html=1;" vertex="1" parent="1">
          <mxGeometry x="280" y="351" width="120" height="60" as="geometry" />
        </mxCell>
        <mxCell id="G4NPPSlctF6GQNJt1KWF-39" style="edgeStyle=orthogonalEdgeStyle;shape=connector;rounded=0;orthogonalLoop=1;jettySize=auto;html=1;entryX=0.8;entryY=0.5;entryDx=0;entryDy=0;entryPerimeter=0;labelBackgroundColor=default;strokeColor=default;fontFamily=Helvetica;fontSize=11;fontColor=default;endArrow=none;endFill=0;" edge="1" parent="1" source="G4NPPSlctF6GQNJt1KWF-2" target="G4NPPSlctF6GQNJt1KWF-8">
          <mxGeometry relative="1" as="geometry" />
        </mxCell>
        <mxCell id="G4NPPSlctF6GQNJt1KWF-40" style="edgeStyle=orthogonalEdgeStyle;shape=connector;rounded=0;orthogonalLoop=1;jettySize=auto;html=1;labelBackgroundColor=default;strokeColor=default;fontFamily=Helvetica;fontSize=11;fontColor=default;endArrow=none;endFill=0;" edge="1" parent="1" source="G4NPPSlctF6GQNJt1KWF-2" target="G4NPPSlctF6GQNJt1KWF-20">
          <mxGeometry relative="1" as="geometry" />
        </mxCell>
        <mxCell id="G4NPPSlctF6GQNJt1KWF-61" style="edgeStyle=orthogonalEdgeStyle;shape=connector;rounded=0;orthogonalLoop=1;jettySize=auto;html=1;exitX=0.5;exitY=0;exitDx=0;exitDy=0;entryX=0.5;entryY=1;entryDx=0;entryDy=0;labelBackgroundColor=default;strokeColor=default;fontFamily=Helvetica;fontSize=11;fontColor=default;endArrow=none;endFill=0;" edge="1" parent="1" source="G4NPPSlctF6GQNJt1KWF-2" target="G4NPPSlctF6GQNJt1KWF-24">
          <mxGeometry relative="1" as="geometry" />
        </mxCell>
        <mxCell id="G4NPPSlctF6GQNJt1KWF-62" style="edgeStyle=orthogonalEdgeStyle;shape=connector;rounded=0;orthogonalLoop=1;jettySize=auto;html=1;exitX=0.5;exitY=0;exitDx=0;exitDy=0;entryX=0.423;entryY=1.055;entryDx=0;entryDy=0;entryPerimeter=0;labelBackgroundColor=default;strokeColor=default;fontFamily=Helvetica;fontSize=11;fontColor=default;endArrow=none;endFill=0;" edge="1" parent="1" source="G4NPPSlctF6GQNJt1KWF-2" target="G4NPPSlctF6GQNJt1KWF-21">
          <mxGeometry relative="1" as="geometry" />
        </mxCell>
        <mxCell id="G4NPPSlctF6GQNJt1KWF-2" value="VAGA" style="rounded=0;whiteSpace=wrap;html=1;" vertex="1" parent="1">
          <mxGeometry x="750" y="351" width="120" height="60" as="geometry" />
        </mxCell>
        <mxCell id="G4NPPSlctF6GQNJt1KWF-42" style="edgeStyle=orthogonalEdgeStyle;shape=connector;rounded=0;orthogonalLoop=1;jettySize=auto;html=1;labelBackgroundColor=default;strokeColor=default;fontFamily=Helvetica;fontSize=11;fontColor=default;endArrow=none;endFill=0;" edge="1" parent="1" source="G4NPPSlctF6GQNJt1KWF-3" target="G4NPPSlctF6GQNJt1KWF-17">
          <mxGeometry relative="1" as="geometry" />
        </mxCell>
        <mxCell id="G4NPPSlctF6GQNJt1KWF-43" style="edgeStyle=orthogonalEdgeStyle;shape=connector;rounded=0;orthogonalLoop=1;jettySize=auto;html=1;labelBackgroundColor=default;strokeColor=default;fontFamily=Helvetica;fontSize=11;fontColor=default;endArrow=none;endFill=0;" edge="1" parent="1" source="G4NPPSlctF6GQNJt1KWF-3" target="G4NPPSlctF6GQNJt1KWF-19">
          <mxGeometry relative="1" as="geometry" />
        </mxCell>
        <mxCell id="G4NPPSlctF6GQNJt1KWF-45" style="edgeStyle=orthogonalEdgeStyle;shape=connector;rounded=0;orthogonalLoop=1;jettySize=auto;html=1;labelBackgroundColor=default;strokeColor=default;fontFamily=Helvetica;fontSize=11;fontColor=default;endArrow=none;endFill=0;" edge="1" parent="1" source="G4NPPSlctF6GQNJt1KWF-3" target="G4NPPSlctF6GQNJt1KWF-18">
          <mxGeometry relative="1" as="geometry" />
        </mxCell>
        <mxCell id="G4NPPSlctF6GQNJt1KWF-54" style="edgeStyle=orthogonalEdgeStyle;shape=connector;rounded=0;orthogonalLoop=1;jettySize=auto;html=1;labelBackgroundColor=default;strokeColor=default;fontFamily=Helvetica;fontSize=11;fontColor=default;endArrow=none;endFill=0;" edge="1" parent="1" source="G4NPPSlctF6GQNJt1KWF-3" target="G4NPPSlctF6GQNJt1KWF-29">
          <mxGeometry relative="1" as="geometry" />
        </mxCell>
        <mxCell id="G4NPPSlctF6GQNJt1KWF-3" value="VEICULO&amp;nbsp;" style="rounded=0;whiteSpace=wrap;html=1;" vertex="1" parent="1">
          <mxGeometry x="750" y="611" width="120" height="60" as="geometry" />
        </mxCell>
        <mxCell id="G4NPPSlctF6GQNJt1KWF-51" style="edgeStyle=orthogonalEdgeStyle;shape=connector;rounded=0;orthogonalLoop=1;jettySize=auto;html=1;exitX=0;exitY=0.5;exitDx=0;exitDy=0;entryX=1;entryY=0.5;entryDx=0;entryDy=0;labelBackgroundColor=default;strokeColor=default;fontFamily=Helvetica;fontSize=11;fontColor=default;endArrow=none;endFill=0;" edge="1" parent="1" source="G4NPPSlctF6GQNJt1KWF-4" target="G4NPPSlctF6GQNJt1KWF-33">
          <mxGeometry relative="1" as="geometry" />
        </mxCell>
        <mxCell id="G4NPPSlctF6GQNJt1KWF-4" value="CLIENTE" style="rounded=0;whiteSpace=wrap;html=1;" vertex="1" parent="1">
          <mxGeometry x="280" y="611" width="120" height="60" as="geometry" />
        </mxCell>
        <mxCell id="G4NPPSlctF6GQNJt1KWF-58" style="edgeStyle=orthogonalEdgeStyle;shape=connector;rounded=0;orthogonalLoop=1;jettySize=auto;html=1;entryX=0;entryY=0.5;entryDx=0;entryDy=0;labelBackgroundColor=default;strokeColor=default;fontFamily=Helvetica;fontSize=11;fontColor=default;endArrow=none;endFill=0;" edge="1" parent="1" target="G4NPPSlctF6GQNJt1KWF-25">
          <mxGeometry relative="1" as="geometry">
            <mxPoint x="1280" y="639" as="sourcePoint" />
          </mxGeometry>
        </mxCell>
        <mxCell id="G4NPPSlctF6GQNJt1KWF-59" style="edgeStyle=orthogonalEdgeStyle;shape=connector;rounded=0;orthogonalLoop=1;jettySize=auto;html=1;entryX=0;entryY=0.5;entryDx=0;entryDy=0;labelBackgroundColor=default;strokeColor=default;fontFamily=Helvetica;fontSize=11;fontColor=default;endArrow=none;endFill=0;" edge="1" parent="1" target="G4NPPSlctF6GQNJt1KWF-27">
          <mxGeometry relative="1" as="geometry">
            <mxPoint x="1280" y="639" as="sourcePoint" />
          </mxGeometry>
        </mxCell>
        <mxCell id="G4NPPSlctF6GQNJt1KWF-60" style="edgeStyle=orthogonalEdgeStyle;shape=connector;rounded=0;orthogonalLoop=1;jettySize=auto;html=1;labelBackgroundColor=default;strokeColor=default;fontFamily=Helvetica;fontSize=11;fontColor=default;endArrow=none;endFill=0;" edge="1" parent="1" target="G4NPPSlctF6GQNJt1KWF-26">
          <mxGeometry relative="1" as="geometry">
            <mxPoint x="1289" y="639" as="sourcePoint" />
          </mxGeometry>
        </mxCell>
        <mxCell id="G4NPPSlctF6GQNJt1KWF-87" style="edgeStyle=orthogonalEdgeStyle;shape=connector;rounded=0;orthogonalLoop=1;jettySize=auto;html=1;exitX=1;exitY=1;exitDx=0;exitDy=0;labelBackgroundColor=default;strokeColor=default;fontFamily=Helvetica;fontSize=11;fontColor=default;endArrow=none;endFill=0;" edge="1" parent="1" source="G4NPPSlctF6GQNJt1KWF-5">
          <mxGeometry relative="1" as="geometry">
            <mxPoint x="1280.4444444444443" y="638" as="targetPoint" />
          </mxGeometry>
        </mxCell>
        <mxCell id="G4NPPSlctF6GQNJt1KWF-5" value="FUNCIONARIO" style="rounded=0;whiteSpace=wrap;html=1;" vertex="1" parent="1">
          <mxGeometry x="1160" y="481" width="120" height="60" as="geometry" />
        </mxCell>
        <mxCell id="G4NPPSlctF6GQNJt1KWF-8" value="TEM" style="rhombus;whiteSpace=wrap;html=1;" vertex="1" parent="1">
          <mxGeometry x="530" y="361" width="100" height="40" as="geometry" />
        </mxCell>
        <mxCell id="G4NPPSlctF6GQNJt1KWF-41" style="edgeStyle=orthogonalEdgeStyle;shape=connector;rounded=0;orthogonalLoop=1;jettySize=auto;html=1;labelBackgroundColor=default;strokeColor=default;fontFamily=Helvetica;fontSize=11;fontColor=default;endArrow=none;endFill=0;" edge="1" parent="1" source="G4NPPSlctF6GQNJt1KWF-17">
          <mxGeometry relative="1" as="geometry">
            <mxPoint x="810" y="411" as="targetPoint" />
          </mxGeometry>
        </mxCell>
        <mxCell id="G4NPPSlctF6GQNJt1KWF-17" value="OCUPA" style="rhombus;whiteSpace=wrap;html=1;" vertex="1" parent="1">
          <mxGeometry x="760" y="491" width="100" height="40" as="geometry" />
        </mxCell>
        <mxCell id="G4NPPSlctF6GQNJt1KWF-46" style="edgeStyle=orthogonalEdgeStyle;shape=connector;rounded=0;orthogonalLoop=1;jettySize=auto;html=1;labelBackgroundColor=default;strokeColor=default;fontFamily=Helvetica;fontSize=11;fontColor=default;endArrow=none;endFill=0;" edge="1" parent="1" source="G4NPPSlctF6GQNJt1KWF-18" target="G4NPPSlctF6GQNJt1KWF-4">
          <mxGeometry relative="1" as="geometry" />
        </mxCell>
        <mxCell id="G4NPPSlctF6GQNJt1KWF-18" value="TEM" style="rhombus;whiteSpace=wrap;html=1;" vertex="1" parent="1">
          <mxGeometry x="530" y="621" width="100" height="40" as="geometry" />
        </mxCell>
        <mxCell id="G4NPPSlctF6GQNJt1KWF-53" style="edgeStyle=orthogonalEdgeStyle;shape=connector;rounded=0;orthogonalLoop=1;jettySize=auto;html=1;labelBackgroundColor=default;strokeColor=default;fontFamily=Helvetica;fontSize=11;fontColor=default;endArrow=none;endFill=0;" edge="1" parent="1" source="G4NPPSlctF6GQNJt1KWF-19" target="G4NPPSlctF6GQNJt1KWF-5">
          <mxGeometry relative="1" as="geometry" />
        </mxCell>
        <mxCell id="G4NPPSlctF6GQNJt1KWF-19" value="DIRIGE" style="rhombus;whiteSpace=wrap;html=1;" vertex="1" parent="1">
          <mxGeometry x="960" y="621" width="100" height="40" as="geometry" />
        </mxCell>
        <mxCell id="G4NPPSlctF6GQNJt1KWF-52" style="edgeStyle=orthogonalEdgeStyle;shape=connector;rounded=0;orthogonalLoop=1;jettySize=auto;html=1;labelBackgroundColor=default;strokeColor=default;fontFamily=Helvetica;fontSize=11;fontColor=default;endArrow=none;endFill=0;" edge="1" parent="1" source="G4NPPSlctF6GQNJt1KWF-20" target="G4NPPSlctF6GQNJt1KWF-5">
          <mxGeometry relative="1" as="geometry">
            <Array as="points">
              <mxPoint x="1220" y="381" />
            </Array>
          </mxGeometry>
        </mxCell>
        <mxCell id="G4NPPSlctF6GQNJt1KWF-20" value="CONSULTA" style="rhombus;whiteSpace=wrap;html=1;" vertex="1" parent="1">
          <mxGeometry x="960" y="361" width="100" height="40" as="geometry" />
        </mxCell>
        <mxCell id="G4NPPSlctF6GQNJt1KWF-21" value="DISPONIBILIIDADE" style="ellipse;whiteSpace=wrap;html=1;fontFamily=Helvetica;fontSize=11;fontColor=default;" vertex="1" parent="1">
          <mxGeometry x="706.5" y="231" width="100" height="40" as="geometry" />
        </mxCell>
        <mxCell id="G4NPPSlctF6GQNJt1KWF-55" style="edgeStyle=orthogonalEdgeStyle;shape=connector;rounded=0;orthogonalLoop=1;jettySize=auto;html=1;exitX=0.5;exitY=0;exitDx=0;exitDy=0;labelBackgroundColor=default;strokeColor=default;fontFamily=Helvetica;fontSize=11;fontColor=default;endArrow=none;endFill=0;" edge="1" parent="1" source="G4NPPSlctF6GQNJt1KWF-22">
          <mxGeometry relative="1" as="geometry">
            <mxPoint x="810" y="671" as="targetPoint" />
          </mxGeometry>
        </mxCell>
        <mxCell id="G4NPPSlctF6GQNJt1KWF-22" value="CHEGADA" style="ellipse;whiteSpace=wrap;html=1;fontFamily=Helvetica;fontSize=11;fontColor=default;" vertex="1" parent="1">
          <mxGeometry x="816.5" y="751" width="100" height="40" as="geometry" />
        </mxCell>
        <mxCell id="G4NPPSlctF6GQNJt1KWF-56" style="edgeStyle=orthogonalEdgeStyle;shape=connector;rounded=0;orthogonalLoop=1;jettySize=auto;html=1;exitX=0.5;exitY=0;exitDx=0;exitDy=0;entryX=0.5;entryY=1;entryDx=0;entryDy=0;labelBackgroundColor=default;strokeColor=default;fontFamily=Helvetica;fontSize=11;fontColor=default;endArrow=none;endFill=0;" edge="1" parent="1" source="G4NPPSlctF6GQNJt1KWF-23" target="G4NPPSlctF6GQNJt1KWF-3">
          <mxGeometry relative="1" as="geometry" />
        </mxCell>
        <mxCell id="G4NPPSlctF6GQNJt1KWF-23" value="SAIDA" style="ellipse;whiteSpace=wrap;html=1;fontFamily=Helvetica;fontSize=11;fontColor=default;" vertex="1" parent="1">
          <mxGeometry x="923.5" y="751" width="100" height="40" as="geometry" />
        </mxCell>
        <mxCell id="G4NPPSlctF6GQNJt1KWF-24" value="ID" style="ellipse;whiteSpace=wrap;html=1;fontFamily=Helvetica;fontSize=11;fontColor=default;gradientColor=none;shadow=0;fontStyle=4" vertex="1" parent="1">
          <mxGeometry x="816.5" y="231" width="100" height="40" as="geometry" />
        </mxCell>
        <mxCell id="G4NPPSlctF6GQNJt1KWF-25" value="ID" style="ellipse;whiteSpace=wrap;html=1;fontFamily=Helvetica;fontSize=11;fontColor=default;fontStyle=4" vertex="1" parent="1">
          <mxGeometry x="1360" y="569" width="100" height="40" as="geometry" />
        </mxCell>
        <mxCell id="G4NPPSlctF6GQNJt1KWF-26" value="NOME" style="ellipse;whiteSpace=wrap;html=1;fontFamily=Helvetica;fontSize=11;fontColor=default;" vertex="1" parent="1">
          <mxGeometry x="1360" y="619" width="100" height="40" as="geometry" />
        </mxCell>
        <mxCell id="G4NPPSlctF6GQNJt1KWF-27" value="NÃMERO" style="ellipse;whiteSpace=wrap;html=1;fontFamily=Helvetica;fontSize=11;fontColor=default;" vertex="1" parent="1">
          <mxGeometry x="1360" y="669" width="100" height="40" as="geometry" />
        </mxCell>
        <mxCell id="G4NPPSlctF6GQNJt1KWF-57" style="edgeStyle=orthogonalEdgeStyle;shape=connector;rounded=0;orthogonalLoop=1;jettySize=auto;html=1;exitX=0.5;exitY=0;exitDx=0;exitDy=0;labelBackgroundColor=default;strokeColor=default;fontFamily=Helvetica;fontSize=11;fontColor=default;endArrow=none;endFill=0;" edge="1" parent="1" source="G4NPPSlctF6GQNJt1KWF-28">
          <mxGeometry relative="1" as="geometry">
            <mxPoint x="810" y="671" as="targetPoint" />
          </mxGeometry>
        </mxCell>
        <mxCell id="G4NPPSlctF6GQNJt1KWF-28" value="PLACA" style="ellipse;whiteSpace=wrap;html=1;fontFamily=Helvetica;fontSize=11;fontColor=default;fontStyle=4" vertex="1" parent="1">
          <mxGeometry x="596.5" y="751" width="100" height="40" as="geometry" />
        </mxCell>
        <mxCell id="G4NPPSlctF6GQNJt1KWF-29" value="PROPRIETARIO" style="ellipse;whiteSpace=wrap;html=1;fontFamily=Helvetica;fontSize=11;fontColor=default;" vertex="1" parent="1">
          <mxGeometry x="706.5" y="751" width="100" height="40" as="geometry" />
        </mxCell>
        <mxCell id="G4NPPSlctF6GQNJt1KWF-47" style="edgeStyle=orthogonalEdgeStyle;shape=connector;rounded=0;orthogonalLoop=1;jettySize=auto;html=1;entryX=0;entryY=0.5;entryDx=0;entryDy=0;labelBackgroundColor=default;strokeColor=default;fontFamily=Helvetica;fontSize=11;fontColor=default;endArrow=none;endFill=0;" edge="1" parent="1" source="G4NPPSlctF6GQNJt1KWF-30" target="G4NPPSlctF6GQNJt1KWF-4">
          <mxGeometry relative="1" as="geometry" />
        </mxCell>
        <mxCell id="G4NPPSlctF6GQNJt1KWF-30" value="ID" style="ellipse;whiteSpace=wrap;html=1;fontFamily=Helvetica;fontSize=11;fontColor=default;fontStyle=4" vertex="1" parent="1">
          <mxGeometry x="90" y="546" width="100" height="40" as="geometry" />
        </mxCell>
        <mxCell id="G4NPPSlctF6GQNJt1KWF-48" style="edgeStyle=orthogonalEdgeStyle;shape=connector;rounded=0;orthogonalLoop=1;jettySize=auto;html=1;labelBackgroundColor=default;strokeColor=default;fontFamily=Helvetica;fontSize=11;fontColor=default;endArrow=none;endFill=0;" edge="1" parent="1" source="G4NPPSlctF6GQNJt1KWF-31" target="G4NPPSlctF6GQNJt1KWF-4">
          <mxGeometry relative="1" as="geometry" />
        </mxCell>
        <mxCell id="G4NPPSlctF6GQNJt1KWF-31" value="NOME" style="ellipse;whiteSpace=wrap;html=1;fontFamily=Helvetica;fontSize=11;fontColor=default;" vertex="1" parent="1">
          <mxGeometry x="90" y="596" width="100" height="40" as="geometry" />
        </mxCell>
        <mxCell id="G4NPPSlctF6GQNJt1KWF-49" style="edgeStyle=orthogonalEdgeStyle;shape=connector;rounded=0;orthogonalLoop=1;jettySize=auto;html=1;labelBackgroundColor=default;strokeColor=default;fontFamily=Helvetica;fontSize=11;fontColor=default;endArrow=none;endFill=0;" edge="1" parent="1" source="G4NPPSlctF6GQNJt1KWF-32" target="G4NPPSlctF6GQNJt1KWF-4">
          <mxGeometry relative="1" as="geometry" />
        </mxCell>
        <mxCell id="G4NPPSlctF6GQNJt1KWF-32" value="NÃMERO" style="ellipse;whiteSpace=wrap;html=1;fontFamily=Helvetica;fontSize=11;fontColor=default;" vertex="1" parent="1">
          <mxGeometry x="90" y="646" width="100" height="40" as="geometry" />
        </mxCell>
        <mxCell id="G4NPPSlctF6GQNJt1KWF-33" value="CPF" style="ellipse;whiteSpace=wrap;html=1;fontFamily=Helvetica;fontSize=11;fontColor=default;" vertex="1" parent="1">
          <mxGeometry x="90" y="696" width="100" height="40" as="geometry" />
        </mxCell>
        <mxCell id="G4NPPSlctF6GQNJt1KWF-67" value="1" style="text;html=1;align=center;verticalAlign=middle;resizable=0;points=[];autosize=1;strokeColor=none;fillColor=none;fontSize=11;fontFamily=Helvetica;fontColor=default;" vertex="1" parent="1">
          <mxGeometry x="395" y="359" width="30" height="30" as="geometry" />
        </mxCell>
        <mxCell id="G4NPPSlctF6GQNJt1KWF-68" value="N" style="text;html=1;align=center;verticalAlign=middle;resizable=0;points=[];autosize=1;strokeColor=none;fillColor=none;fontSize=11;fontFamily=Helvetica;fontColor=default;" vertex="1" parent="1">
          <mxGeometry x="725" y="359" width="30" height="30" as="geometry" />
        </mxCell>
        <mxCell id="G4NPPSlctF6GQNJt1KWF-69" value="N" style="text;html=1;align=center;verticalAlign=middle;resizable=0;points=[];autosize=1;strokeColor=none;fillColor=none;fontSize=11;fontFamily=Helvetica;fontColor=default;" vertex="1" parent="1">
          <mxGeometry x="865" y="359" width="30" height="30" as="geometry" />
        </mxCell>
        <mxCell id="G4NPPSlctF6GQNJt1KWF-70" value="N" style="text;html=1;align=center;verticalAlign=middle;resizable=0;points=[];autosize=1;strokeColor=none;fillColor=none;fontSize=11;fontFamily=Helvetica;fontColor=default;" vertex="1" parent="1">
          <mxGeometry x="1195" y="459" width="30" height="30" as="geometry" />
        </mxCell>
        <mxCell id="G4NPPSlctF6GQNJt1KWF-71" value="N" style="text;html=1;align=center;verticalAlign=middle;resizable=0;points=[];autosize=1;strokeColor=none;fillColor=none;fontSize=11;fontFamily=Helvetica;fontColor=default;" vertex="1" parent="1">
          <mxGeometry x="865" y="619" width="30" height="30" as="geometry" />
        </mxCell>
        <mxCell id="G4NPPSlctF6GQNJt1KWF-72" value="1" style="text;html=1;align=center;verticalAlign=middle;resizable=0;points=[];autosize=1;strokeColor=none;fillColor=none;fontSize=11;fontFamily=Helvetica;fontColor=default;" vertex="1" parent="1">
          <mxGeometry x="1195" y="539" width="30" height="30" as="geometry" />
        </mxCell>
        <mxCell id="G4NPPSlctF6GQNJt1KWF-73" value="N" style="text;html=1;align=center;verticalAlign=middle;resizable=0;points=[];autosize=1;strokeColor=none;fillColor=none;fontSize=11;fontFamily=Helvetica;fontColor=default;" vertex="1" parent="1">
          <mxGeometry x="395" y="619" width="30" height="30" as="geometry" />
        </mxCell>
        <mxCell id="G4NPPSlctF6GQNJt1KWF-74" value="1" style="text;html=1;align=center;verticalAlign=middle;resizable=0;points=[];autosize=1;strokeColor=none;fillColor=none;fontSize=11;fontFamily=Helvetica;fontColor=default;" vertex="1" parent="1">
          <mxGeometry x="725" y="619" width="30" height="30" as="geometry" />
        </mxCell>
        <mxCell id="G4NPPSlctF6GQNJt1KWF-81" style="edgeStyle=orthogonalEdgeStyle;shape=connector;rounded=0;orthogonalLoop=1;jettySize=auto;html=1;labelBackgroundColor=default;strokeColor=default;fontFamily=Helvetica;fontSize=11;fontColor=default;endArrow=none;endFill=0;" edge="1" parent="1" source="G4NPPSlctF6GQNJt1KWF-76">
          <mxGeometry relative="1" as="geometry">
            <mxPoint x="866.5" y="781" as="targetPoint" />
          </mxGeometry>
        </mxCell>
        <mxCell id="G4NPPSlctF6GQNJt1KWF-76" value="HOTA" style="ellipse;whiteSpace=wrap;html=1;fontFamily=Helvetica;fontSize=11;fontColor=default;" vertex="1" parent="1">
          <mxGeometry x="816.5" y="901" width="100" height="40" as="geometry" />
        </mxCell>
        <mxCell id="G4NPPSlctF6GQNJt1KWF-80" style="edgeStyle=orthogonalEdgeStyle;shape=connector;rounded=0;orthogonalLoop=1;jettySize=auto;html=1;labelBackgroundColor=default;strokeColor=default;fontFamily=Helvetica;fontSize=11;fontColor=default;endArrow=none;endFill=0;" edge="1" parent="1" source="G4NPPSlctF6GQNJt1KWF-77" target="G4NPPSlctF6GQNJt1KWF-22">
          <mxGeometry relative="1" as="geometry" />
        </mxCell>
        <mxCell id="G4NPPSlctF6GQNJt1KWF-77" value="DATA" style="ellipse;whiteSpace=wrap;html=1;fontFamily=Helvetica;fontSize=11;fontColor=default;" vertex="1" parent="1">
          <mxGeometry x="716.5" y="851" width="100" height="40" as="geometry" />
        </mxCell>
        <mxCell id="G4NPPSlctF6GQNJt1KWF-83" style="edgeStyle=orthogonalEdgeStyle;shape=connector;rounded=0;orthogonalLoop=1;jettySize=auto;html=1;labelBackgroundColor=default;strokeColor=default;fontFamily=Helvetica;fontSize=11;fontColor=default;endArrow=none;endFill=0;" edge="1" parent="1" source="G4NPPSlctF6GQNJt1KWF-78" target="G4NPPSlctF6GQNJt1KWF-23">
          <mxGeometry relative="1" as="geometry" />
        </mxCell>
        <mxCell id="G4NPPSlctF6GQNJt1KWF-78" value="DATA" style="ellipse;whiteSpace=wrap;html=1;fontFamily=Helvetica;fontSize=11;fontColor=default;" vertex="1" parent="1">
          <mxGeometry x="923.5" y="901" width="100" height="40" as="geometry" />
        </mxCell>
        <mxCell id="G4NPPSlctF6GQNJt1KWF-82" style="edgeStyle=orthogonalEdgeStyle;shape=connector;rounded=0;orthogonalLoop=1;jettySize=auto;html=1;entryX=0.5;entryY=1;entryDx=0;entryDy=0;labelBackgroundColor=default;strokeColor=default;fontFamily=Helvetica;fontSize=11;fontColor=default;endArrow=none;endFill=0;" edge="1" parent="1" source="G4NPPSlctF6GQNJt1KWF-79" target="G4NPPSlctF6GQNJt1KWF-23">
          <mxGeometry relative="1" as="geometry" />
        </mxCell>
        <mxCell id="G4NPPSlctF6GQNJt1KWF-79" value="HORA" style="ellipse;whiteSpace=wrap;html=1;fontFamily=Helvetica;fontSize=11;fontColor=default;" vertex="1" parent="1">
          <mxGeometry x="1023.5" y="851" width="100" height="40" as="geometry" />
        </mxCell>
        <mxCell id="G4NPPSlctF6GQNJt1KWF-84" value="1" style="text;html=1;align=center;verticalAlign=middle;resizable=0;points=[];autosize=1;strokeColor=none;fillColor=none;fontSize=11;fontFamily=Helvetica;fontColor=default;" vertex="1" parent="1">
          <mxGeometry x="805" y="409" width="30" height="30" as="geometry" />
        </mxCell>
        <mxCell id="G4NPPSlctF6GQNJt1KWF-85" value="1" style="text;html=1;align=center;verticalAlign=middle;resizable=0;points=[];autosize=1;strokeColor=none;fillColor=none;fontSize=11;fontFamily=Helvetica;fontColor=default;" vertex="1" parent="1">
          <mxGeometry x="805" y="589" width="30" height="30" as="geometry" />
        </mxCell>
        <mxCell id="G4NPPSlctF6GQNJt1KWF-90" style="shape=connector;rounded=0;orthogonalLoop=1;jettySize=auto;html=1;exitX=0;exitY=1;exitDx=0;exitDy=0;entryX=1;entryY=0;entryDx=0;entryDy=0;labelBackgroundColor=default;strokeColor=default;fontFamily=Helvetica;fontSize=11;fontColor=default;endArrow=none;endFill=0;" edge="1" parent="1" source="G4NPPSlctF6GQNJt1KWF-88" target="G4NPPSlctF6GQNJt1KWF-89">
          <mxGeometry relative="1" as="geometry" />
        </mxCell>
        <mxCell id="G4NPPSlctF6GQNJt1KWF-88" value="GERENTE" style="rounded=0;whiteSpace=wrap;html=1;" vertex="1" parent="1">
          <mxGeometry x="1443" y="299" width="120" height="60" as="geometry" />
        </mxCell>
        <mxCell id="G4NPPSlctF6GQNJt1KWF-91" style="shape=connector;rounded=0;orthogonalLoop=1;jettySize=auto;html=1;exitX=0;exitY=1;exitDx=0;exitDy=0;entryX=1;entryY=0;entryDx=0;entryDy=0;labelBackgroundColor=default;strokeColor=default;fontFamily=Helvetica;fontSize=11;fontColor=default;endArrow=none;endFill=0;" edge="1" parent="1" source="G4NPPSlctF6GQNJt1KWF-89" target="G4NPPSlctF6GQNJt1KWF-5">
          <mxGeometry relative="1" as="geometry" />
        </mxCell>
        <mxCell id="G4NPPSlctF6GQNJt1KWF-89" value="PODE SER" style="rhombus;whiteSpace=wrap;html=1;" vertex="1" parent="1">
          <mxGeometry x="1311" y="399" width="100" height="40" as="geometry" />
        </mxCell>
        <mxCell id="G4NPPSlctF6GQNJt1KWF-95" style="edgeStyle=orthogonalEdgeStyle;shape=connector;rounded=0;orthogonalLoop=1;jettySize=auto;html=1;labelBackgroundColor=default;strokeColor=default;fontFamily=Helvetica;fontSize=11;fontColor=default;endArrow=none;endFill=0;" edge="1" parent="1" source="G4NPPSlctF6GQNJt1KWF-92" target="G4NPPSlctF6GQNJt1KWF-88">
          <mxGeometry relative="1" as="geometry">
            <Array as="points">
              <mxPoint x="1317" y="253" />
              <mxPoint x="1476" y="253" />
            </Array>
          </mxGeometry>
        </mxCell>
        <mxCell id="G4NPPSlctF6GQNJt1KWF-92" value="FATURAMENTO MENSAL" style="ellipse;whiteSpace=wrap;html=1;fontFamily=Helvetica;fontSize=11;fontColor=default;" vertex="1" parent="1">
          <mxGeometry x="1267" y="176" width="100" height="40" as="geometry" />
        </mxCell>
        <mxCell id="G4NPPSlctF6GQNJt1KWF-94" style="edgeStyle=orthogonalEdgeStyle;shape=connector;rounded=0;orthogonalLoop=1;jettySize=auto;html=1;labelBackgroundColor=default;strokeColor=default;fontFamily=Helvetica;fontSize=11;fontColor=default;endArrow=none;endFill=0;" edge="1" parent="1" source="G4NPPSlctF6GQNJt1KWF-93" target="G4NPPSlctF6GQNJt1KWF-88">
          <mxGeometry relative="1" as="geometry">
            <Array as="points">
              <mxPoint x="1482" y="258" />
              <mxPoint x="1476" y="258" />
            </Array>
          </mxGeometry>
        </mxCell>
        <mxCell id="G4NPPSlctF6GQNJt1KWF-93" value="ID" style="ellipse;whiteSpace=wrap;html=1;fontFamily=Helvetica;fontSize=11;fontColor=default;fontStyle=4" vertex="1" parent="1">
          <mxGeometry x="1432" y="176" width="100" height="40" as="geometry" />
        </mxCell>
        <mxCell id="G4NPPSlctF6GQNJt1KWF-97" style="edgeStyle=orthogonalEdgeStyle;shape=connector;rounded=0;orthogonalLoop=1;jettySize=auto;html=1;labelBackgroundColor=default;strokeColor=default;fontFamily=Helvetica;fontSize=11;fontColor=default;endArrow=none;endFill=0;" edge="1" source="G4NPPSlctF6GQNJt1KWF-98" target="G4NPPSlctF6GQNJt1KWF-116" parent="1">
          <mxGeometry relative="1" as="geometry" />
        </mxCell>
        <mxCell id="G4NPPSlctF6GQNJt1KWF-98" value="ESTACIONAMENTO" style="rounded=0;whiteSpace=wrap;html=1;" vertex="1" parent="1">
          <mxGeometry x="244" y="1466" width="120" height="60" as="geometry" />
        </mxCell>
        <mxCell id="G4NPPSlctF6GQNJt1KWF-99" style="edgeStyle=orthogonalEdgeStyle;shape=connector;rounded=0;orthogonalLoop=1;jettySize=auto;html=1;entryX=0.8;entryY=0.5;entryDx=0;entryDy=0;entryPerimeter=0;labelBackgroundColor=default;strokeColor=default;fontFamily=Helvetica;fontSize=11;fontColor=default;endArrow=none;endFill=0;" edge="1" source="G4NPPSlctF6GQNJt1KWF-103" target="G4NPPSlctF6GQNJt1KWF-116" parent="1">
          <mxGeometry relative="1" as="geometry" />
        </mxCell>
        <mxCell id="G4NPPSlctF6GQNJt1KWF-100" style="edgeStyle=orthogonalEdgeStyle;shape=connector;rounded=0;orthogonalLoop=1;jettySize=auto;html=1;labelBackgroundColor=default;strokeColor=default;fontFamily=Helvetica;fontSize=11;fontColor=default;endArrow=none;endFill=0;" edge="1" source="G4NPPSlctF6GQNJt1KWF-103" target="G4NPPSlctF6GQNJt1KWF-124" parent="1">
          <mxGeometry relative="1" as="geometry" />
        </mxCell>
        <mxCell id="G4NPPSlctF6GQNJt1KWF-101" style="edgeStyle=orthogonalEdgeStyle;shape=connector;rounded=0;orthogonalLoop=1;jettySize=auto;html=1;exitX=0.5;exitY=0;exitDx=0;exitDy=0;entryX=0.5;entryY=1;entryDx=0;entryDy=0;labelBackgroundColor=default;strokeColor=default;fontFamily=Helvetica;fontSize=11;fontColor=default;endArrow=none;endFill=0;" edge="1" source="G4NPPSlctF6GQNJt1KWF-103" target="G4NPPSlctF6GQNJt1KWF-130" parent="1">
          <mxGeometry relative="1" as="geometry" />
        </mxCell>
        <mxCell id="G4NPPSlctF6GQNJt1KWF-102" style="edgeStyle=orthogonalEdgeStyle;shape=connector;rounded=0;orthogonalLoop=1;jettySize=auto;html=1;exitX=0.5;exitY=0;exitDx=0;exitDy=0;entryX=0.423;entryY=1.055;entryDx=0;entryDy=0;entryPerimeter=0;labelBackgroundColor=default;strokeColor=default;fontFamily=Helvetica;fontSize=11;fontColor=default;endArrow=none;endFill=0;" edge="1" source="G4NPPSlctF6GQNJt1KWF-103" target="G4NPPSlctF6GQNJt1KWF-125" parent="1">
          <mxGeometry relative="1" as="geometry" />
        </mxCell>
        <mxCell id="G4NPPSlctF6GQNJt1KWF-103" value="VAGA" style="rounded=0;whiteSpace=wrap;html=1;" vertex="1" parent="1">
          <mxGeometry x="714" y="1466" width="120" height="60" as="geometry" />
        </mxCell>
        <mxCell id="G4NPPSlctF6GQNJt1KWF-104" style="edgeStyle=orthogonalEdgeStyle;shape=connector;rounded=0;orthogonalLoop=1;jettySize=auto;html=1;labelBackgroundColor=default;strokeColor=default;fontFamily=Helvetica;fontSize=11;fontColor=default;endArrow=none;endFill=0;" edge="1" source="G4NPPSlctF6GQNJt1KWF-108" target="G4NPPSlctF6GQNJt1KWF-118" parent="1">
          <mxGeometry relative="1" as="geometry" />
        </mxCell>
        <mxCell id="G4NPPSlctF6GQNJt1KWF-105" style="edgeStyle=orthogonalEdgeStyle;shape=connector;rounded=0;orthogonalLoop=1;jettySize=auto;html=1;labelBackgroundColor=default;strokeColor=default;fontFamily=Helvetica;fontSize=11;fontColor=default;endArrow=none;endFill=0;" edge="1" source="G4NPPSlctF6GQNJt1KWF-108" target="G4NPPSlctF6GQNJt1KWF-122" parent="1">
          <mxGeometry relative="1" as="geometry" />
        </mxCell>
        <mxCell id="G4NPPSlctF6GQNJt1KWF-106" style="edgeStyle=orthogonalEdgeStyle;shape=connector;rounded=0;orthogonalLoop=1;jettySize=auto;html=1;labelBackgroundColor=default;strokeColor=default;fontFamily=Helvetica;fontSize=11;fontColor=default;endArrow=none;endFill=0;" edge="1" source="G4NPPSlctF6GQNJt1KWF-108" target="G4NPPSlctF6GQNJt1KWF-120" parent="1">
          <mxGeometry relative="1" as="geometry" />
        </mxCell>
        <mxCell id="G4NPPSlctF6GQNJt1KWF-107" style="edgeStyle=orthogonalEdgeStyle;shape=connector;rounded=0;orthogonalLoop=1;jettySize=auto;html=1;labelBackgroundColor=default;strokeColor=default;fontFamily=Helvetica;fontSize=11;fontColor=default;endArrow=none;endFill=0;" edge="1" source="G4NPPSlctF6GQNJt1KWF-108" target="G4NPPSlctF6GQNJt1KWF-136" parent="1">
          <mxGeometry relative="1" as="geometry" />
        </mxCell>
        <mxCell id="G4NPPSlctF6GQNJt1KWF-108" value="VEICULO&amp;nbsp;" style="rounded=0;whiteSpace=wrap;html=1;" vertex="1" parent="1">
          <mxGeometry x="714" y="1726" width="120" height="60" as="geometry" />
        </mxCell>
        <mxCell id="G4NPPSlctF6GQNJt1KWF-109" style="edgeStyle=orthogonalEdgeStyle;shape=connector;rounded=0;orthogonalLoop=1;jettySize=auto;html=1;exitX=0;exitY=0.5;exitDx=0;exitDy=0;entryX=1;entryY=0.5;entryDx=0;entryDy=0;labelBackgroundColor=default;strokeColor=default;fontFamily=Helvetica;fontSize=11;fontColor=default;endArrow=none;endFill=0;" edge="1" source="G4NPPSlctF6GQNJt1KWF-110" target="G4NPPSlctF6GQNJt1KWF-143" parent="1">
          <mxGeometry relative="1" as="geometry" />
        </mxCell>
        <mxCell id="G4NPPSlctF6GQNJt1KWF-110" value="CLIENTE" style="rounded=0;whiteSpace=wrap;html=1;" vertex="1" parent="1">
          <mxGeometry x="244" y="1726" width="120" height="60" as="geometry" />
        </mxCell>
        <mxCell id="G4NPPSlctF6GQNJt1KWF-111" style="edgeStyle=orthogonalEdgeStyle;shape=connector;rounded=0;orthogonalLoop=1;jettySize=auto;html=1;entryX=0;entryY=0.5;entryDx=0;entryDy=0;labelBackgroundColor=default;strokeColor=default;fontFamily=Helvetica;fontSize=11;fontColor=default;endArrow=none;endFill=0;" edge="1" target="G4NPPSlctF6GQNJt1KWF-131" parent="1">
          <mxGeometry relative="1" as="geometry">
            <mxPoint x="1244" y="1754" as="sourcePoint" />
          </mxGeometry>
        </mxCell>
        <mxCell id="G4NPPSlctF6GQNJt1KWF-112" style="edgeStyle=orthogonalEdgeStyle;shape=connector;rounded=0;orthogonalLoop=1;jettySize=auto;html=1;entryX=0;entryY=0.5;entryDx=0;entryDy=0;labelBackgroundColor=default;strokeColor=default;fontFamily=Helvetica;fontSize=11;fontColor=default;endArrow=none;endFill=0;" edge="1" target="G4NPPSlctF6GQNJt1KWF-133" parent="1">
          <mxGeometry relative="1" as="geometry">
            <mxPoint x="1244" y="1754" as="sourcePoint" />
          </mxGeometry>
        </mxCell>
        <mxCell id="G4NPPSlctF6GQNJt1KWF-113" style="edgeStyle=orthogonalEdgeStyle;shape=connector;rounded=0;orthogonalLoop=1;jettySize=auto;html=1;labelBackgroundColor=default;strokeColor=default;fontFamily=Helvetica;fontSize=11;fontColor=default;endArrow=none;endFill=0;" edge="1" target="G4NPPSlctF6GQNJt1KWF-132" parent="1">
          <mxGeometry relative="1" as="geometry">
            <mxPoint x="1253" y="1754" as="sourcePoint" />
          </mxGeometry>
        </mxCell>
        <mxCell id="G4NPPSlctF6GQNJt1KWF-114" style="edgeStyle=orthogonalEdgeStyle;shape=connector;rounded=0;orthogonalLoop=1;jettySize=auto;html=1;exitX=1;exitY=1;exitDx=0;exitDy=0;labelBackgroundColor=default;strokeColor=default;fontFamily=Helvetica;fontSize=11;fontColor=default;endArrow=none;endFill=0;" edge="1" source="G4NPPSlctF6GQNJt1KWF-115" parent="1">
          <mxGeometry relative="1" as="geometry">
            <mxPoint x="1244.4444444444443" y="1753" as="targetPoint" />
          </mxGeometry>
        </mxCell>
        <mxCell id="G4NPPSlctF6GQNJt1KWF-115" value="FUNCIONARIO" style="rounded=0;whiteSpace=wrap;html=1;" vertex="1" parent="1">
          <mxGeometry x="1124" y="1596" width="120" height="60" as="geometry" />
        </mxCell>
        <mxCell id="G4NPPSlctF6GQNJt1KWF-116" value="TEM" style="rhombus;whiteSpace=wrap;html=1;" vertex="1" parent="1">
          <mxGeometry x="494" y="1476" width="100" height="40" as="geometry" />
        </mxCell>
        <mxCell id="G4NPPSlctF6GQNJt1KWF-117" style="edgeStyle=orthogonalEdgeStyle;shape=connector;rounded=0;orthogonalLoop=1;jettySize=auto;html=1;labelBackgroundColor=default;strokeColor=default;fontFamily=Helvetica;fontSize=11;fontColor=default;endArrow=none;endFill=0;" edge="1" source="G4NPPSlctF6GQNJt1KWF-118" parent="1">
          <mxGeometry relative="1" as="geometry">
            <mxPoint x="774" y="1526" as="targetPoint" />
          </mxGeometry>
        </mxCell>
        <mxCell id="G4NPPSlctF6GQNJt1KWF-118" value="OCUPA" style="rhombus;whiteSpace=wrap;html=1;" vertex="1" parent="1">
          <mxGeometry x="724" y="1606" width="100" height="40" as="geometry" />
        </mxCell>
        <mxCell id="G4NPPSlctF6GQNJt1KWF-119" style="edgeStyle=orthogonalEdgeStyle;shape=connector;rounded=0;orthogonalLoop=1;jettySize=auto;html=1;labelBackgroundColor=default;strokeColor=default;fontFamily=Helvetica;fontSize=11;fontColor=default;endArrow=none;endFill=0;" edge="1" source="G4NPPSlctF6GQNJt1KWF-120" target="G4NPPSlctF6GQNJt1KWF-110" parent="1">
          <mxGeometry relative="1" as="geometry" />
        </mxCell>
        <mxCell id="G4NPPSlctF6GQNJt1KWF-120" value="TEM" style="rhombus;whiteSpace=wrap;html=1;" vertex="1" parent="1">
          <mxGeometry x="494" y="1736" width="100" height="40" as="geometry" />
        </mxCell>
        <mxCell id="G4NPPSlctF6GQNJt1KWF-121" style="edgeStyle=orthogonalEdgeStyle;shape=connector;rounded=0;orthogonalLoop=1;jettySize=auto;html=1;labelBackgroundColor=default;strokeColor=default;fontFamily=Helvetica;fontSize=11;fontColor=default;endArrow=none;endFill=0;" edge="1" source="G4NPPSlctF6GQNJt1KWF-122" target="G4NPPSlctF6GQNJt1KWF-115" parent="1">
          <mxGeometry relative="1" as="geometry" />
        </mxCell>
        <mxCell id="G4NPPSlctF6GQNJt1KWF-122" value="DIRIGE" style="rhombus;whiteSpace=wrap;html=1;" vertex="1" parent="1">
          <mxGeometry x="924" y="1736" width="100" height="40" as="geometry" />
        </mxCell>
        <mxCell id="G4NPPSlctF6GQNJt1KWF-123" style="edgeStyle=orthogonalEdgeStyle;shape=connector;rounded=0;orthogonalLoop=1;jettySize=auto;html=1;labelBackgroundColor=default;strokeColor=default;fontFamily=Helvetica;fontSize=11;fontColor=default;endArrow=none;endFill=0;" edge="1" source="G4NPPSlctF6GQNJt1KWF-124" target="G4NPPSlctF6GQNJt1KWF-115" parent="1">
          <mxGeometry relative="1" as="geometry">
            <Array as="points">
              <mxPoint x="1184" y="1496" />
            </Array>
          </mxGeometry>
        </mxCell>
        <mxCell id="G4NPPSlctF6GQNJt1KWF-124" value="CONSULTA" style="rhombus;whiteSpace=wrap;html=1;" vertex="1" parent="1">
          <mxGeometry x="924" y="1476" width="100" height="40" as="geometry" />
        </mxCell>
        <mxCell id="G4NPPSlctF6GQNJt1KWF-125" value="POSIÃÃO" style="ellipse;whiteSpace=wrap;html=1;fontFamily=Helvetica;fontSize=11;fontColor=default;" vertex="1" parent="1">
          <mxGeometry x="670.5" y="1346" width="100" height="40" as="geometry" />
        </mxCell>
        <mxCell id="G4NPPSlctF6GQNJt1KWF-128" style="shape=connector;rounded=0;orthogonalLoop=1;jettySize=auto;html=1;entryX=1;entryY=1;entryDx=0;entryDy=0;labelBackgroundColor=default;strokeColor=default;fontFamily=Helvetica;fontSize=11;fontColor=default;endArrow=none;endFill=0;" edge="1" source="G4NPPSlctF6GQNJt1KWF-187" target="G4NPPSlctF6GQNJt1KWF-108" parent="1">
          <mxGeometry relative="1" as="geometry">
            <mxPoint x="937.5" y="1866" as="sourcePoint" />
          </mxGeometry>
        </mxCell>
        <mxCell id="G4NPPSlctF6GQNJt1KWF-130" value="NUMERO" style="ellipse;whiteSpace=wrap;html=1;fontFamily=Helvetica;fontSize=11;fontColor=default;gradientColor=none;shadow=0;fontStyle=4" vertex="1" parent="1">
          <mxGeometry x="780.5" y="1346" width="100" height="40" as="geometry" />
        </mxCell>
        <mxCell id="G4NPPSlctF6GQNJt1KWF-131" value="CPF" style="ellipse;whiteSpace=wrap;html=1;fontFamily=Helvetica;fontSize=11;fontColor=default;fontStyle=4" vertex="1" parent="1">
          <mxGeometry x="1324" y="1684" width="100" height="40" as="geometry" />
        </mxCell>
        <mxCell id="G4NPPSlctF6GQNJt1KWF-132" value="CPF" style="ellipse;whiteSpace=wrap;html=1;fontFamily=Helvetica;fontSize=11;fontColor=default;" vertex="1" parent="1">
          <mxGeometry x="1324" y="1734" width="100" height="40" as="geometry" />
        </mxCell>
        <mxCell id="G4NPPSlctF6GQNJt1KWF-133" value="ENDEREÃO" style="ellipse;whiteSpace=wrap;html=1;fontFamily=Helvetica;fontSize=11;fontColor=default;" vertex="1" parent="1">
          <mxGeometry x="1324" y="1784" width="100" height="40" as="geometry" />
        </mxCell>
        <mxCell id="G4NPPSlctF6GQNJt1KWF-134" style="edgeStyle=orthogonalEdgeStyle;shape=connector;rounded=0;orthogonalLoop=1;jettySize=auto;html=1;exitX=0.5;exitY=0;exitDx=0;exitDy=0;labelBackgroundColor=default;strokeColor=default;fontFamily=Helvetica;fontSize=11;fontColor=default;endArrow=none;endFill=0;" edge="1" source="G4NPPSlctF6GQNJt1KWF-135" parent="1">
          <mxGeometry relative="1" as="geometry">
            <mxPoint x="774" y="1786" as="targetPoint" />
          </mxGeometry>
        </mxCell>
        <mxCell id="G4NPPSlctF6GQNJt1KWF-135" value="ID" style="ellipse;whiteSpace=wrap;html=1;fontFamily=Helvetica;fontSize=11;fontColor=default;fontStyle=4" vertex="1" parent="1">
          <mxGeometry x="614" y="1901" width="100" height="40" as="geometry" />
        </mxCell>
        <mxCell id="G4NPPSlctF6GQNJt1KWF-136" value="MODELO" style="ellipse;whiteSpace=wrap;html=1;fontFamily=Helvetica;fontSize=11;fontColor=default;" vertex="1" parent="1">
          <mxGeometry x="724" y="1901" width="100" height="40" as="geometry" />
        </mxCell>
        <mxCell id="G4NPPSlctF6GQNJt1KWF-137" style="edgeStyle=orthogonalEdgeStyle;shape=connector;rounded=0;orthogonalLoop=1;jettySize=auto;html=1;entryX=0;entryY=0.5;entryDx=0;entryDy=0;labelBackgroundColor=default;strokeColor=default;fontFamily=Helvetica;fontSize=11;fontColor=default;endArrow=none;endFill=0;" edge="1" source="G4NPPSlctF6GQNJt1KWF-138" target="G4NPPSlctF6GQNJt1KWF-110" parent="1">
          <mxGeometry relative="1" as="geometry" />
        </mxCell>
        <mxCell id="G4NPPSlctF6GQNJt1KWF-138" value="CPF" style="ellipse;whiteSpace=wrap;html=1;fontFamily=Helvetica;fontSize=11;fontColor=default;fontStyle=4" vertex="1" parent="1">
          <mxGeometry x="54" y="1661" width="100" height="40" as="geometry" />
        </mxCell>
        <mxCell id="G4NPPSlctF6GQNJt1KWF-139" style="edgeStyle=orthogonalEdgeStyle;shape=connector;rounded=0;orthogonalLoop=1;jettySize=auto;html=1;labelBackgroundColor=default;strokeColor=default;fontFamily=Helvetica;fontSize=11;fontColor=default;endArrow=none;endFill=0;" edge="1" source="G4NPPSlctF6GQNJt1KWF-140" target="G4NPPSlctF6GQNJt1KWF-110" parent="1">
          <mxGeometry relative="1" as="geometry" />
        </mxCell>
        <mxCell id="G4NPPSlctF6GQNJt1KWF-140" value="SEXO" style="ellipse;whiteSpace=wrap;html=1;fontFamily=Helvetica;fontSize=11;fontColor=default;" vertex="1" parent="1">
          <mxGeometry x="54" y="1711" width="100" height="38" as="geometry" />
        </mxCell>
        <mxCell id="G4NPPSlctF6GQNJt1KWF-141" style="edgeStyle=orthogonalEdgeStyle;shape=connector;rounded=0;orthogonalLoop=1;jettySize=auto;html=1;labelBackgroundColor=default;strokeColor=default;fontFamily=Helvetica;fontSize=11;fontColor=default;endArrow=none;endFill=0;" edge="1" source="G4NPPSlctF6GQNJt1KWF-142" target="G4NPPSlctF6GQNJt1KWF-110" parent="1">
          <mxGeometry relative="1" as="geometry" />
        </mxCell>
        <mxCell id="G4NPPSlctF6GQNJt1KWF-142" value="NOME" style="ellipse;whiteSpace=wrap;html=1;fontFamily=Helvetica;fontSize=11;fontColor=default;" vertex="1" parent="1">
          <mxGeometry x="54" y="1761" width="100" height="40" as="geometry" />
        </mxCell>
        <mxCell id="G4NPPSlctF6GQNJt1KWF-143" value="RG" style="ellipse;whiteSpace=wrap;html=1;fontFamily=Helvetica;fontSize=11;fontColor=default;" vertex="1" parent="1">
          <mxGeometry x="54" y="1811" width="100" height="40" as="geometry" />
        </mxCell>
        <mxCell id="G4NPPSlctF6GQNJt1KWF-144" value="1" style="text;html=1;align=center;verticalAlign=middle;resizable=0;points=[];autosize=1;strokeColor=none;fillColor=none;fontSize=11;fontFamily=Helvetica;fontColor=default;" vertex="1" parent="1">
          <mxGeometry x="359" y="1474" width="30" height="30" as="geometry" />
        </mxCell>
        <mxCell id="G4NPPSlctF6GQNJt1KWF-145" value="N" style="text;html=1;align=center;verticalAlign=middle;resizable=0;points=[];autosize=1;strokeColor=none;fillColor=none;fontSize=11;fontFamily=Helvetica;fontColor=default;" vertex="1" parent="1">
          <mxGeometry x="689" y="1474" width="30" height="30" as="geometry" />
        </mxCell>
        <mxCell id="G4NPPSlctF6GQNJt1KWF-146" value="N" style="text;html=1;align=center;verticalAlign=middle;resizable=0;points=[];autosize=1;strokeColor=none;fillColor=none;fontSize=11;fontFamily=Helvetica;fontColor=default;" vertex="1" parent="1">
          <mxGeometry x="829" y="1474" width="30" height="30" as="geometry" />
        </mxCell>
        <mxCell id="G4NPPSlctF6GQNJt1KWF-147" value="N" style="text;html=1;align=center;verticalAlign=middle;resizable=0;points=[];autosize=1;strokeColor=none;fillColor=none;fontSize=11;fontFamily=Helvetica;fontColor=default;" vertex="1" parent="1">
          <mxGeometry x="1159" y="1574" width="30" height="30" as="geometry" />
        </mxCell>
        <mxCell id="G4NPPSlctF6GQNJt1KWF-148" value="N" style="text;html=1;align=center;verticalAlign=middle;resizable=0;points=[];autosize=1;strokeColor=none;fillColor=none;fontSize=11;fontFamily=Helvetica;fontColor=default;" vertex="1" parent="1">
          <mxGeometry x="829" y="1734" width="30" height="30" as="geometry" />
        </mxCell>
        <mxCell id="G4NPPSlctF6GQNJt1KWF-149" value="1" style="text;html=1;align=center;verticalAlign=middle;resizable=0;points=[];autosize=1;strokeColor=none;fillColor=none;fontSize=11;fontFamily=Helvetica;fontColor=default;" vertex="1" parent="1">
          <mxGeometry x="1159" y="1654" width="30" height="30" as="geometry" />
        </mxCell>
        <mxCell id="G4NPPSlctF6GQNJt1KWF-150" value="N" style="text;html=1;align=center;verticalAlign=middle;resizable=0;points=[];autosize=1;strokeColor=none;fillColor=none;fontSize=11;fontFamily=Helvetica;fontColor=default;" vertex="1" parent="1">
          <mxGeometry x="359" y="1734" width="30" height="30" as="geometry" />
        </mxCell>
        <mxCell id="G4NPPSlctF6GQNJt1KWF-151" value="1" style="text;html=1;align=center;verticalAlign=middle;resizable=0;points=[];autosize=1;strokeColor=none;fillColor=none;fontSize=11;fontFamily=Helvetica;fontColor=default;" vertex="1" parent="1">
          <mxGeometry x="689" y="1734" width="30" height="30" as="geometry" />
        </mxCell>
        <mxCell id="G4NPPSlctF6GQNJt1KWF-160" value="1" style="text;html=1;align=center;verticalAlign=middle;resizable=0;points=[];autosize=1;strokeColor=none;fillColor=none;fontSize=11;fontFamily=Helvetica;fontColor=default;" vertex="1" parent="1">
          <mxGeometry x="769" y="1524" width="30" height="30" as="geometry" />
        </mxCell>
        <mxCell id="G4NPPSlctF6GQNJt1KWF-161" value="1" style="text;html=1;align=center;verticalAlign=middle;resizable=0;points=[];autosize=1;strokeColor=none;fillColor=none;fontSize=11;fontFamily=Helvetica;fontColor=default;" vertex="1" parent="1">
          <mxGeometry x="769" y="1704" width="30" height="30" as="geometry" />
        </mxCell>
        <mxCell id="G4NPPSlctF6GQNJt1KWF-162" style="shape=connector;rounded=0;orthogonalLoop=1;jettySize=auto;html=1;exitX=0;exitY=1;exitDx=0;exitDy=0;entryX=1;entryY=0;entryDx=0;entryDy=0;labelBackgroundColor=default;strokeColor=default;fontFamily=Helvetica;fontSize=11;fontColor=default;endArrow=none;endFill=0;" edge="1" source="G4NPPSlctF6GQNJt1KWF-163" target="G4NPPSlctF6GQNJt1KWF-165" parent="1">
          <mxGeometry relative="1" as="geometry" />
        </mxCell>
        <mxCell id="G4NPPSlctF6GQNJt1KWF-163" value="GERENTE" style="rounded=0;whiteSpace=wrap;html=1;" vertex="1" parent="1">
          <mxGeometry x="1407" y="1414" width="120" height="60" as="geometry" />
        </mxCell>
        <mxCell id="G4NPPSlctF6GQNJt1KWF-164" style="shape=connector;rounded=0;orthogonalLoop=1;jettySize=auto;html=1;exitX=0;exitY=1;exitDx=0;exitDy=0;entryX=1;entryY=0;entryDx=0;entryDy=0;labelBackgroundColor=default;strokeColor=default;fontFamily=Helvetica;fontSize=11;fontColor=default;endArrow=none;endFill=0;" edge="1" source="G4NPPSlctF6GQNJt1KWF-165" target="G4NPPSlctF6GQNJt1KWF-115" parent="1">
          <mxGeometry relative="1" as="geometry" />
        </mxCell>
        <mxCell id="G4NPPSlctF6GQNJt1KWF-165" value="PODE SER" style="rhombus;whiteSpace=wrap;html=1;" vertex="1" parent="1">
          <mxGeometry x="1275" y="1514" width="100" height="40" as="geometry" />
        </mxCell>
        <mxCell id="G4NPPSlctF6GQNJt1KWF-166" style="edgeStyle=orthogonalEdgeStyle;shape=connector;rounded=0;orthogonalLoop=1;jettySize=auto;html=1;labelBackgroundColor=default;strokeColor=default;fontFamily=Helvetica;fontSize=11;fontColor=default;endArrow=none;endFill=0;" edge="1" target="G4NPPSlctF6GQNJt1KWF-163" parent="1">
          <mxGeometry relative="1" as="geometry">
            <mxPoint x="1281" y="1331" as="sourcePoint" />
            <Array as="points">
              <mxPoint x="1281" y="1368" />
              <mxPoint x="1440" y="1368" />
            </Array>
          </mxGeometry>
        </mxCell>
        <mxCell id="G4NPPSlctF6GQNJt1KWF-167" style="edgeStyle=orthogonalEdgeStyle;shape=connector;rounded=0;orthogonalLoop=1;jettySize=auto;html=1;labelBackgroundColor=default;strokeColor=default;fontFamily=Helvetica;fontSize=11;fontColor=default;endArrow=none;endFill=0;" edge="1" target="G4NPPSlctF6GQNJt1KWF-163" parent="1">
          <mxGeometry relative="1" as="geometry">
            <mxPoint x="1446" y="1331" as="sourcePoint" />
            <Array as="points">
              <mxPoint x="1446" y="1373" />
              <mxPoint x="1440" y="1373" />
            </Array>
          </mxGeometry>
        </mxCell>
        <mxCell id="G4NPPSlctF6GQNJt1KWF-168" value="FATURAMENTO MENSAL" style="ellipse;whiteSpace=wrap;html=1;fontFamily=Helvetica;fontSize=11;fontColor=default;" vertex="1" parent="1">
          <mxGeometry x="1231.5" y="1298" width="100" height="40" as="geometry" />
        </mxCell>
        <mxCell id="G4NPPSlctF6GQNJt1KWF-169" value="CPF" style="ellipse;whiteSpace=wrap;html=1;fontFamily=Helvetica;fontSize=11;fontColor=default;fontStyle=4" vertex="1" parent="1">
          <mxGeometry x="1396.5" y="1298" width="100" height="40" as="geometry" />
        </mxCell>
        <mxCell id="G4NPPSlctF6GQNJt1KWF-172" style="shape=connector;rounded=0;orthogonalLoop=1;jettySize=auto;html=1;exitX=0.5;exitY=0;exitDx=0;exitDy=0;entryX=0.5;entryY=1;entryDx=0;entryDy=0;labelBackgroundColor=default;strokeColor=default;fontFamily=Helvetica;fontSize=11;fontColor=default;endArrow=none;endFill=0;" edge="1" parent="1" source="G4NPPSlctF6GQNJt1KWF-170" target="G4NPPSlctF6GQNJt1KWF-133">
          <mxGeometry relative="1" as="geometry" />
        </mxCell>
        <mxCell id="G4NPPSlctF6GQNJt1KWF-170" value="RUA" style="ellipse;whiteSpace=wrap;html=1;fontFamily=Helvetica;fontSize=11;fontColor=default;" vertex="1" parent="1">
          <mxGeometry x="1389" y="1851" width="100" height="40" as="geometry" />
        </mxCell>
        <mxCell id="G4NPPSlctF6GQNJt1KWF-173" style="edgeStyle=orthogonalEdgeStyle;shape=connector;rounded=0;orthogonalLoop=1;jettySize=auto;html=1;exitX=0;exitY=0.5;exitDx=0;exitDy=0;labelBackgroundColor=default;strokeColor=default;fontFamily=Helvetica;fontSize=11;fontColor=default;endArrow=none;endFill=0;" edge="1" parent="1" source="G4NPPSlctF6GQNJt1KWF-171" target="G4NPPSlctF6GQNJt1KWF-133">
          <mxGeometry relative="1" as="geometry" />
        </mxCell>
        <mxCell id="G4NPPSlctF6GQNJt1KWF-171" value="CIDADE" style="ellipse;whiteSpace=wrap;html=1;fontFamily=Helvetica;fontSize=11;fontColor=default;" vertex="1" parent="1">
          <mxGeometry x="1466" y="1784" width="100" height="40" as="geometry" />
        </mxCell>
        <mxCell id="G4NPPSlctF6GQNJt1KWF-185" style="edgeStyle=orthogonalEdgeStyle;shape=connector;rounded=0;orthogonalLoop=1;jettySize=auto;html=1;exitX=0.5;exitY=1;exitDx=0;exitDy=0;entryX=0.5;entryY=0;entryDx=0;entryDy=0;labelBackgroundColor=default;strokeColor=default;fontFamily=Helvetica;fontSize=11;fontColor=default;endArrow=none;endFill=0;" edge="1" parent="1" source="G4NPPSlctF6GQNJt1KWF-174" target="G4NPPSlctF6GQNJt1KWF-175">
          <mxGeometry relative="1" as="geometry" />
        </mxCell>
        <mxCell id="G4NPPSlctF6GQNJt1KWF-186" style="edgeStyle=orthogonalEdgeStyle;shape=connector;rounded=0;orthogonalLoop=1;jettySize=auto;html=1;exitX=0.5;exitY=1;exitDx=0;exitDy=0;entryX=0.5;entryY=0;entryDx=0;entryDy=0;labelBackgroundColor=default;strokeColor=default;fontFamily=Helvetica;fontSize=11;fontColor=default;endArrow=none;endFill=0;" edge="1" parent="1" source="G4NPPSlctF6GQNJt1KWF-174" target="G4NPPSlctF6GQNJt1KWF-176">
          <mxGeometry relative="1" as="geometry" />
        </mxCell>
        <mxCell id="G4NPPSlctF6GQNJt1KWF-174" value="REGISTRO" style="rounded=0;whiteSpace=wrap;html=1;" vertex="1" parent="1">
          <mxGeometry x="869" y="1891" width="120" height="60" as="geometry" />
        </mxCell>
        <mxCell id="G4NPPSlctF6GQNJt1KWF-175" value="CHEGADA" style="ellipse;whiteSpace=wrap;html=1;fontFamily=Helvetica;fontSize=11;fontColor=default;" vertex="1" parent="1">
          <mxGeometry x="825.5" y="2035" width="100" height="40" as="geometry" />
        </mxCell>
        <mxCell id="G4NPPSlctF6GQNJt1KWF-176" value="SAIDA" style="ellipse;whiteSpace=wrap;html=1;fontFamily=Helvetica;fontSize=11;fontColor=default;" vertex="1" parent="1">
          <mxGeometry x="932.5" y="2035" width="100" height="40" as="geometry" />
        </mxCell>
        <mxCell id="G4NPPSlctF6GQNJt1KWF-177" style="edgeStyle=orthogonalEdgeStyle;shape=connector;rounded=0;orthogonalLoop=1;jettySize=auto;html=1;labelBackgroundColor=default;strokeColor=default;fontFamily=Helvetica;fontSize=11;fontColor=default;endArrow=none;endFill=0;" edge="1" parent="1" source="G4NPPSlctF6GQNJt1KWF-178">
          <mxGeometry relative="1" as="geometry">
            <mxPoint x="875.5" y="2065" as="targetPoint" />
          </mxGeometry>
        </mxCell>
        <mxCell id="G4NPPSlctF6GQNJt1KWF-178" value="HOTA" style="ellipse;whiteSpace=wrap;html=1;fontFamily=Helvetica;fontSize=11;fontColor=default;" vertex="1" parent="1">
          <mxGeometry x="825.5" y="2185" width="100" height="40" as="geometry" />
        </mxCell>
        <mxCell id="G4NPPSlctF6GQNJt1KWF-179" style="edgeStyle=orthogonalEdgeStyle;shape=connector;rounded=0;orthogonalLoop=1;jettySize=auto;html=1;labelBackgroundColor=default;strokeColor=default;fontFamily=Helvetica;fontSize=11;fontColor=default;endArrow=none;endFill=0;" edge="1" parent="1" source="G4NPPSlctF6GQNJt1KWF-180" target="G4NPPSlctF6GQNJt1KWF-175">
          <mxGeometry relative="1" as="geometry" />
        </mxCell>
        <mxCell id="G4NPPSlctF6GQNJt1KWF-180" value="DATA" style="ellipse;whiteSpace=wrap;html=1;fontFamily=Helvetica;fontSize=11;fontColor=default;" vertex="1" parent="1">
          <mxGeometry x="725.5" y="2135" width="100" height="40" as="geometry" />
        </mxCell>
        <mxCell id="G4NPPSlctF6GQNJt1KWF-181" style="edgeStyle=orthogonalEdgeStyle;shape=connector;rounded=0;orthogonalLoop=1;jettySize=auto;html=1;labelBackgroundColor=default;strokeColor=default;fontFamily=Helvetica;fontSize=11;fontColor=default;endArrow=none;endFill=0;" edge="1" parent="1" source="G4NPPSlctF6GQNJt1KWF-182" target="G4NPPSlctF6GQNJt1KWF-176">
          <mxGeometry relative="1" as="geometry" />
        </mxCell>
        <mxCell id="G4NPPSlctF6GQNJt1KWF-182" value="DATA" style="ellipse;whiteSpace=wrap;html=1;fontFamily=Helvetica;fontSize=11;fontColor=default;" vertex="1" parent="1">
          <mxGeometry x="932.5" y="2185" width="100" height="40" as="geometry" />
        </mxCell>
        <mxCell id="G4NPPSlctF6GQNJt1KWF-183" style="edgeStyle=orthogonalEdgeStyle;shape=connector;rounded=0;orthogonalLoop=1;jettySize=auto;html=1;entryX=0.5;entryY=1;entryDx=0;entryDy=0;labelBackgroundColor=default;strokeColor=default;fontFamily=Helvetica;fontSize=11;fontColor=default;endArrow=none;endFill=0;" edge="1" parent="1" source="G4NPPSlctF6GQNJt1KWF-184" target="G4NPPSlctF6GQNJt1KWF-176">
          <mxGeometry relative="1" as="geometry" />
        </mxCell>
        <mxCell id="G4NPPSlctF6GQNJt1KWF-184" value="HORA" style="ellipse;whiteSpace=wrap;html=1;fontFamily=Helvetica;fontSize=11;fontColor=default;" vertex="1" parent="1">
          <mxGeometry x="1032.5" y="2135" width="100" height="40" as="geometry" />
        </mxCell>
        <mxCell id="G4NPPSlctF6GQNJt1KWF-188" value="" style="shape=connector;rounded=0;orthogonalLoop=1;jettySize=auto;html=1;entryX=1;entryY=1;entryDx=0;entryDy=0;labelBackgroundColor=default;strokeColor=default;fontFamily=Helvetica;fontSize=11;fontColor=default;endArrow=none;endFill=0;" edge="1" parent="1" source="G4NPPSlctF6GQNJt1KWF-174" target="G4NPPSlctF6GQNJt1KWF-187">
          <mxGeometry relative="1" as="geometry">
            <mxPoint x="908" y="1891" as="sourcePoint" />
            <mxPoint x="834" y="1786" as="targetPoint" />
          </mxGeometry>
        </mxCell>
        <mxCell id="G4NPPSlctF6GQNJt1KWF-187" value="TEM" style="rhombus;whiteSpace=wrap;html=1;" vertex="1" parent="1">
          <mxGeometry x="824" y="1824" width="100" height="40" as="geometry" />
        </mxCell>
        <mxCell id="G4NPPSlctF6GQNJt1KWF-189" value="1" style="text;html=1;align=center;verticalAlign=middle;resizable=0;points=[];autosize=1;strokeColor=none;fillColor=none;fontSize=11;fontFamily=Helvetica;fontColor=default;" vertex="1" parent="1">
          <mxGeometry x="821" y="1773" width="33" height="22" as="geometry" />
        </mxCell>
        <mxCell id="G4NPPSlctF6GQNJt1KWF-190" value="1" style="text;html=1;align=center;verticalAlign=middle;resizable=0;points=[];autosize=1;strokeColor=none;fillColor=none;fontSize=11;fontFamily=Helvetica;fontColor=default;" vertex="1" parent="1">
          <mxGeometry x="909" y="1872" width="33" height="22" as="geometry" />
        </mxCell>
        <mxCell id="G4NPPSlctF6GQNJt1KWF-191" value="1" style="text;html=1;align=center;verticalAlign=middle;resizable=0;points=[];autosize=1;strokeColor=none;fillColor=none;fontSize=11;fontFamily=Helvetica;fontColor=default;" vertex="1" parent="1">
          <mxGeometry x="1217" y="1575" width="33" height="22" as="geometry" />
        </mxCell>
        <mxCell id="G4NPPSlctF6GQNJt1KWF-192" value="1" style="text;html=1;align=center;verticalAlign=middle;resizable=0;points=[];autosize=1;strokeColor=none;fillColor=none;fontSize=11;fontFamily=Helvetica;fontColor=default;" vertex="1" parent="1">
          <mxGeometry x="1371" y="1454" width="33" height="22" as="geometry" />
        </mxCell>
        <mxCell id="G4NPPSlctF6GQNJt1KWF-193" value="1" style="text;html=1;align=center;verticalAlign=middle;resizable=0;points=[];autosize=1;strokeColor=none;fillColor=none;fontSize=11;fontFamily=Helvetica;fontColor=default;" vertex="1" parent="1">
          <mxGeometry x="1249" y="453" width="33" height="22" as="geometry" />
        </mxCell>
        <mxCell id="G4NPPSlctF6GQNJt1KWF-194" value="1" style="text;html=1;align=center;verticalAlign=middle;resizable=0;points=[];autosize=1;strokeColor=none;fillColor=none;fontSize=11;fontFamily=Helvetica;fontColor=default;" vertex="1" parent="1">
          <mxGeometry x="1414" y="343" width="33" height="22" as="geometry" />
        </mxCell>
      </root>
    </mxGraphModel>
  </diagram>
</mxfile>
